PathFileType	4	(X/Y/Z)	/Users/itak/Documents/Research/Walk-IL/dataset/trc/00512_00183.trc
DataRate	CameraRate	NumFrames	NumMarkers	Units	OrigDataRate	OrigDataStartFrame	OrigNumFrames
100.000000	100.000000	4	54	mm	100.000000	263	422
Frame#	Time	RPSI			LPSI			L3			STRN			T10			C7			CLAV			RBAK			LBAK			LSHO			LUPA			LAEL			LAOL			LWTS			LWPS			LFRA			LIFD			LHPS			LHTS			RSHO			RUPA			RAEL			RAOL			RWTS			RWPS			RFRA			RIFD			RHTS			RHPS			RBHD			LFHD			RFHD			LBHD			LHIP			RASI			LASI			LKNE			LTHI			LANK			LTIP			LTOE			LMT1			LMT5			LHEE			RKNE			RTHI			RANK			RTIP			RTOE			RMT1			RMT5			RHEE			RHIP			*53			
		X1	Y1	Z1	X2	Y2	Z2	X3	Y3	Z3	X4	Y4	Z4	X5	Y5	Z5	X6	Y6	Z6	X7	Y7	Z7	X8	Y8	Z8	X9	Y9	Z9	X10	Y10	Z10	X11	Y11	Z11	X12	Y12	Z12	X13	Y13	Z13	X14	Y14	Z14	X15	Y15	Z15	X16	Y16	Z16	X17	Y17	Z17	X18	Y18	Z18	X19	Y19	Z19	X20	Y20	Z20	X21	Y21	Z21	X22	Y22	Z22	X23	Y23	Z23	X24	Y24	Z24	X25	Y25	Z25	X26	Y26	Z26	X27	Y27	Z27	X28	Y28	Z28	X29	Y29	Z29	X30	Y30	Z30	X31	Y31	Z31	X32	Y32	Z32	X33	Y33	Z33	X34	Y34	Z34	X35	Y35	Z35	X36	Y36	Z36	X37	Y37	Z37	X38	Y38	Z38	X39	Y39	Z39	X40	Y40	Z40	X41	Y41	Z41	X42	Y42	Z42	X43	Y43	Z43	X44	Y44	Z44	X45	Y45	Z45	X46	Y46	Z46	X47	Y47	Z47	X48	Y48	Z48	X49	Y49	Z49	X50	Y50	Z50	X51	Y51	Z51	X52	Y52	Z52	X53	Y53	Z53	X54	Y54	Z54	

264	2.63	1032.248779296875	910.2559814453125	752.38427734375	1108.197875976562	901.1119995117188	655.286865234375	1067.99169921875	983.732666015625	716.7874145507812	1262.860229492188	1158.95068359375	795.0932006835938	1042.740600585938	1087.75439453125	725.1821899414062	1070.569213867188	1319.6474609375	745.4598388671875	1221.705200195312	1250.65380859375	782.2305908203125	1007.239868164062	1193.419311523438	814.0096435546875	1070.7607421875	1266.880615234375	658.72119140625	1178.392211914062	1313.244750976562	608.5685424804688	1145.564086914062	1210.9287109375	538.4063110351562	1094.01953125	1042.964111328125	501.5150756835938	1015.576965332031	1015.143310546875	555.8949584960938	1273.296142578125	958.9086303710938	560.3685302734375	1235.5888671875	873.701171875	556.093505859375	1144.964233398438	994.1527099609375	505.0488891601562	1338.911254882812	878.1958618164062	627.57666015625	1286.322387695312	848.45166015625	559.3760375976562	1329.521484375	900.717041015625	554.1865844726562	1086.342041015625	1315.191040039062	902.5926513671875	1061.724243164062	1245.984497070312	955.1524658203125	1088.907958984375	1007.445983886719	993.4449462890625	1061.703979492188	952.6753540039062	966.1367797851562	1296.41943359375	1030.44580078125	937.3148803710938	1300.029663085938	961.423583984375	996.7037963867188	1133.50439453125	980.2501831054688	1000.20458984375	1446.207641601562	977.7222290039062	925.5364379882812	1393.270263671875	1018.2763671875	953.6880493164062	1375.661865234375	958.9446411132812	990.4464721679688	1048.555419921875	1460.627075195312	806.428466796875	1211.443115234375	1555.229370117188	739.6128540039062	1147.238891601562	1548.926513671875	849.7987670898438	1119.205932617188	1461.660400390625	663.62939453125	1280.403442382812	841.4173583984375	628.3638916015625	1159.91650390625	884.3464965820312	928.7586669921875	1300.615844726562	892.7164306640625	734.5426025390625	1428.5859375	481.7861938476562	788.4519653320312	1380.762329101562	618.9042358398438	722.805419921875	1446.756713867188	36.41772079467773	805.2451171875	1451.48828125	329.4070434570312	795.070556640625	1584.274291992188	31.24026679992676	958.6453857421875	1501.732788085938	40.98620986938477	946.8036499023438	1543.961669921875	28.56484794616699	853.8046264648438	1376.056640625	35.16772842407227	833.441650390625	1144.112060546875	452.1035461425781	965.2608642578125	1088.4521484375	707.32373046875	961.003662109375	855.213134765625	213.2310791015625	785.4511108398438	1082.026611328125	343.2674255371094	928.7435913085938	964.7290649414062	63.13082504272461	862.90380859375	958.622802734375	97.11081695556641	795.4696044921875	890.2740478515625	133.5370941162109	854.861572265625	854.6400146484375	235.1116943359375	718.28759765625	1046.911254882812	831.6282348632812	930.0523071289062	nan	nan	nan	
265	2.64	1044.686401367188	898.734130859375	759.2525024414062	1120.040893554688	892.3685913085938	661.285888671875	1080.618408203125	975.8544311523438	722.3722534179688	1276.322021484375	1150.614990234375	804.5760498046875	1057.307983398438	1080.710693359375	730.3665161132812	1086.426879882812	1312.771484375	752.203125	1236.116943359375	1242.503784179688	791.7203979492188	1020.732421875	1186.687377929688	818.8838500976562	1088.482421875	1259.39794921875	664.9033813476562	1197.038452148438	1305.841674804688	616.8826293945312	1169.244506835938	1200.386962890625	546.1668701171875	1124.125	1030.500244140625	509.37744140625	1043.583984375	1001.605041503906	559.5803833007812	1300.697143554688	951.6011962890625	578.1680908203125	1265.72705078125	865.6367797851562	571.33642578125	1175.569091796875	983.0198974609375	516.1399536132812	1363.909545898438	872.4776611328125	649.205322265625	1316.627319335938	841.2655029296875	578.2243041992188	1358.552978515625	894.8901977539062	575.4651489257812	1099.118774414062	1307.623168945312	910.2050170898438	1073.12060546875	1237.9345703125	961.6703491210938	1096.612548828125	998.9686889648438	997.2384033203125	1069.483276367188	944.68603515625	968.6112060546875	1304.7939453125	1021.410461425781	945.0050659179688	1307.146240234375	951.9664916992188	1003.984497070312	1140.857421875	971.2565307617188	1004.518310546875	1454.47265625	968.1480102539062	935.5215454101562	1401.231079101562	1008.708923339844	962.9625244140625	1382.722900390625	949.1525268554688	998.8694458007812	1063.578491210938	1452.268676757812	814.1552734375	1225.086303710938	1549.158569335938	747.1917724609375	1160.536865234375	1542.723388671875	857.168212890625	1134.819580078125	1453.24560546875	671.7100219726562	1292.719116210938	834.8831176757812	632.805908203125	1174.1796875	876.0807495117188	934.684326171875	1313.8369140625	885.7278442382812	738.9735717773438	1443.123657226562	478.119873046875	797.5537109375	1394.776733398438	613.9569702148438	729.8416137695312	1446.362182617188	34.17060852050781	807.4055786132812	1461.101196289062	325.0706176757812	802.9412841796875	1585.621704101562	28.00605583190918	960.8587646484375	1501.883056640625	37.19049453735352	948.9588623046875	1544.042236328125	27.78081130981445	855.6703491210938	1375.47998046875	30.22619247436523	835.4367065429688	1169.409301757812	446.6990966796875	980.0474853515625	1106.42138671875	698.8175659179688	969.3154296875	877.4830322265625	215.4624938964844	800.595703125	1107.00732421875	341.0968017578125	943.7105712890625	985.5015258789062	64.28215789794922	878.1180419921875	979.4808959960938	97.8232421875	810.56201171875	911.870361328125	135.4832458496094	870.2084350585938	876.8333740234375	237.1637268066406	733.356689453125	1062.152099609375	820.7324829101562	936.763427734375	nan	nan	nan	
266	2.65	1056.432983398438	887.5115356445312	766.542724609375	1130.876708984375	884.1216430664062	667.5343017578125	1092.409912109375	968.3556518554688	728.09423828125	1289.105590820312	1142.323120117188	814.0708618164062	1071.24169921875	1074.0185546875	735.5599975585938	1101.943359375	1306.17626953125	758.7423095703125	1249.98828125	1234.430419921875	801.1720581054688	1033.731323242188	1180.354248046875	823.6777954101562	1105.858642578125	1252.188354492188	670.967041015625	1215.508178710938	1298.434448242188	625.2302856445312	1193.21435546875	1189.758178710938	554.245361328125	1155.0224609375	1018.157165527344	517.8449096679688	1072.531372070312	987.8406372070312	563.4742431640625	1328.221069335938	944.8837280273438	596.746337890625	1296.4287109375	858.1127319335938	587.251708984375	1206.875732421875	972.2152099609375	527.9754028320312	1388.883544921875	867.3013305664062	671.4234008789062	1347.362670898438	834.7785034179688	597.8198852539062	1387.67529296875	889.8900756835938	597.5899658203125	1111.445068359375	1300.321166992188	917.6576538085938	1083.93896484375	1230.245849609375	968.016357421875	1103.390380859375	990.78759765625	1000.736694335938	1076.171875	937.1530151367188	970.7608032226562	1312.37060546875	1011.492370605469	952.9183349609375	1312.923828125	941.796875	1011.594421386719	1147.109008789062	962.402587890625	1008.658325195312	1461.532958984375	956.7925415039062	946.3538818359375	1408.201171875	997.7517700195312	972.76708984375	1388.347412109375	938.198486328125	1007.850646972656	1078.397338867188	1444.21044921875	821.7677612304688	1238.693725585938	1543.143310546875	754.7628784179688	1173.736083984375	1536.606567382812	864.4921875	1150.30078125	1445.107788085938	679.6884155273438	1303.8974609375	829.0640258789062	636.8043212890625	1188.301025390625	867.750244140625	940.478515625	1326.305053710938	879.2631225585938	742.964111328125	1457.280639648438	475.0365905761719	805.8648681640625	1408.261596679688	609.6617431640625	736.10986328125	1445.910400390625	32.82743453979492	809.1297607421875	1470.615234375	321.5206604003906	810.2029418945312	1586.748291015625	25.6079273223877	962.5635986328125	1501.909790039062	34.25643920898438	950.5961303710938	1544.02880859375	27.50429725646973	857.0647583007812	1374.88330078125	26.50723075866699	836.97412109375	1194.9365234375	442.05322265625	994.523681640625	1124.240966796875	690.5010986328125	977.5172729492188	900.9715576171875	216.2814025878906	816.1614379882812	1132.738403320312	339.0727233886719	958.5551147460938	1008.659240722656	64.79354858398438	893.3750610351562	1002.318603515625	97.90970611572266	825.751220703125	935.3826904296875	136.2214813232422	885.8069458007812	899.9573974609375	237.8296356201172	748.8860473632812	1077.208129882812	809.8616943359375	943.5626831054688	nan	nan	nan	
267	2.66	1067.53564453125	876.9869995117188	774.2203979492188	1140.774291992188	876.6593017578125	674.05322265625	1103.413696289062	961.4763793945312	733.9880981445312	1301.239013671875	1134.338989257812	823.5620727539062	1084.50634765625	1067.874755859375	740.8089599609375	1117.037963867188	1300.037231445312	765.09423828125	1263.282836914062	1226.672729492188	810.5556030273438	1046.2265625	1174.58837890625	828.43115234375	1122.761962890625	1245.46435546875	676.941650390625	1233.664428710938	1291.246704101562	633.6224975585938	1217.2177734375	1179.368530273438	562.71728515625	1186.380737304688	1006.327392578125	527.0621948242188	1102.184448242188	974.2195434570312	567.8377075195312	1355.595581054688	939.07275390625	615.9655151367188	1327.404418945312	851.466552734375	603.8040771484375	1238.545166015625	962.1245727539062	540.620361328125	1413.641967773438	862.9837036132812	694.0123291015625	1378.24853515625	829.3636474609375	618.0017700195312	1416.58447265625	886.0308837890625	620.3532104492188	1123.28076171875	1293.471801757812	924.9278564453125	1094.153198242188	1223.120727539062	974.1632080078125	1109.262084960938	983.1124877929688	1003.950134277344	1081.80126953125	930.2892456054688	972.6029663085938	1319.122924804688	1000.907104492188	961.01318359375	1317.336181640625	931.1131591796875	1019.430297851562	1152.275146484375	953.9025268554688	1012.607055664062	1467.319213867188	943.8846435546875	957.945556640625	1414.127563476562	985.6214599609375	983.0364990234375	1392.491943359375	926.2994995117188	1017.299865722656	1092.937255859375	1436.694702148438	829.2454223632812	1252.26611328125	1537.333740234375	762.3377075195312	1186.835083007812	1530.73974609375	871.7801513671875	1165.57177734375	1437.478515625	687.5462036132812	1313.998779296875	824.1636962890625	640.461181640625	1202.242065429688	859.6156005859375	946.1494140625	1338.0068359375	873.55908203125	746.6095581054688	1470.944458007812	472.5308227539062	813.2477416992188	1421.172729492188	606.1217651367188	741.583740234375	1445.52783203125	32.26269149780273	810.4951171875	1479.99365234375	318.725830078125	816.7189331054688	1587.6923828125	23.95318031311035	963.8538818359375	1501.917846679688	32.12899017333984	951.7941284179688	1544.020751953125	27.57405281066895	858.0817260742188	1374.394287109375	24.00967025756836	838.1422119140625	1220.524169921875	438.4389038085938	1008.516174316406	1141.806274414062	682.6788940429688	985.5438842773438	925.5836181640625	215.6150054931641	832.0386352539062	1159.047241210938	337.3397216796875	973.164306640625	1034.076171875	64.68685150146484	908.8284301757812	1027.074340820312	97.32271575927734	841.1467895507812	960.6653442382812	135.7779541015625	901.6742553710938	923.9788818359375	236.9542694091797	764.739990234375	1092.010620117188	799.3738403320312	950.417236328125	nan	nan	nan	
